<svg width="35" height="30" viewBox="0 0 35 30" fill="none" xmlns="http://www.w3.org/2000/svg">
<path d="M22.2727 18.75C18.025 18.75 9.54545 21.2437 9.54545 26.25V30H35V26.25C35 21.2437 26.5205 18.75 22.2727 18.75ZM7.95455 11.25V5.625H4.77273V11.25H0V15H4.77273V20.625H7.95455V15H12.7273V11.25M22.2727 15C23.9605 15 25.5791 14.2098 26.7725 12.8033C27.9659 11.3968 28.6364 9.48912 28.6364 7.5C28.6364 5.51088 27.9659 3.60322 26.7725 2.1967C25.5791 0.790176 23.9605 0 22.2727 0C20.585 0 18.9664 0.790176 17.773 2.1967C16.5795 3.60322 15.9091 5.51088 15.9091 7.5C15.9091 9.48912 16.5795 11.3968 17.773 12.8033C18.9664 14.2098 20.585 15 22.2727 15Z" fill="white"/>
</svg>
