<svg width="35" height="35" viewBox="0 0 35 35" fill="none" xmlns="http://www.w3.org/2000/svg">
<g clip-path="url(#clip0_2_15)">
<path d="M16.4062 27.7083C16.4062 27.4183 16.5215 27.1401 16.7266 26.9349C16.9317 26.7298 17.2099 26.6146 17.5 26.6146H26.25C26.3467 26.6146 26.4394 26.5762 26.5078 26.5078C26.5762 26.4394 26.6146 26.3467 26.6146 26.25V8.75001C26.6146 8.65331 26.5762 8.56058 26.5078 8.49221C26.4394 8.42383 26.3467 8.38542 26.25 8.38542H17.5C17.2099 8.38542 16.9317 8.27019 16.7266 8.06507C16.5215 7.85995 16.4062 7.58175 16.4062 7.29167C16.4062 7.00159 16.5215 6.72339 16.7266 6.51827C16.9317 6.31316 17.2099 6.19792 17.5 6.19792H26.25C27.6587 6.19792 28.8021 7.34126 28.8021 8.75001V26.25C28.8021 26.9269 28.5332 27.576 28.0546 28.0546C27.576 28.5332 26.9269 28.8021 26.25 28.8021H17.5C17.2099 28.8021 16.9317 28.6869 16.7266 28.4817C16.5215 28.2766 16.4062 27.9984 16.4062 27.7083Z" fill="#FFFCFC"/>
<path d="M-2.12122 19.3368C-2.12122 19.7236 -1.96757 20.0945 -1.69408 20.368C-1.42059 20.6415 -1.04966 20.7952 -0.662883 20.7952H6.41878C6.45232 21.3143 6.49462 21.8306 6.5442 22.3498L6.58795 22.7946C6.60424 22.9622 6.66073 23.1234 6.75262 23.2646C6.84452 23.4057 6.9691 23.5226 7.11581 23.6053C7.26251 23.6881 7.42701 23.7342 7.59534 23.7398C7.76367 23.7454 7.93087 23.7103 8.08274 23.6375C10.7481 22.3597 13.1609 20.6113 15.2052 18.4764L15.249 18.4312C15.4367 18.2355 15.5415 17.9747 15.5415 17.7035C15.5415 17.4323 15.4367 17.1716 15.249 16.9758L15.2052 16.9306C13.161 14.7957 10.7481 13.0473 8.08274 11.7696C7.93087 11.6967 7.76367 11.6617 7.59534 11.6672C7.42701 11.6728 7.26251 11.719 7.11581 11.8017C6.9691 11.8844 6.84452 12.0013 6.75262 12.1425C6.66073 12.2836 6.60424 12.4448 6.58795 12.6125L6.5442 13.0573C6.49462 13.575 6.45232 14.0927 6.41878 14.6118H-0.662883C-1.04966 14.6118 -1.42059 14.7655 -1.69408 15.039C-1.96757 15.3125 -2.12122 15.6834 -2.12122 16.0702V19.3368Z" fill="#FFFCFC"/>
</g>
<defs>
<clipPath id="clip0_2_15">
<rect width="35" height="35" fill="white"/>
</clipPath>
</defs>
</svg>
