<svg width="37" height="30" viewBox="0 0 37 30" fill="none" xmlns="http://www.w3.org/2000/svg">
<path d="M18.4229 22.5C18.9625 22.5 19.4188 22.3487 19.7919 22.0462C20.165 21.7437 20.351 21.3742 20.35 20.9375C20.35 20.5 20.164 20.13 19.7919 19.8275C19.4198 19.525 18.9635 19.3742 18.4229 19.375C17.8833 19.375 17.4275 19.5263 17.0554 19.8288C16.6834 20.1313 16.4968 20.5008 16.4958 20.9375C16.4958 21.375 16.6824 21.745 17.0554 22.0475C17.4285 22.35 17.8843 22.5008 18.4229 22.5ZM17.0354 17.6875H19.8875C19.8875 17 19.9841 16.4583 20.1773 16.0625C20.3705 15.6667 20.9163 15.125 21.8146 14.4375C22.4826 13.8958 23.0094 13.38 23.3948 12.89C23.7802 12.4 23.9729 11.8117 23.9729 11.125C23.9729 9.95833 23.4462 9.0625 22.3927 8.4375C21.3392 7.8125 20.093 7.5 18.6541 7.5C17.1896 7.5 16.0015 7.8125 15.0898 8.4375C14.1782 9.0625 13.542 9.8125 13.1812 10.6875L15.725 11.5C15.8535 11.125 16.1428 10.7188 16.5929 10.2813C17.0431 9.84375 17.7302 9.625 18.6541 9.625C19.4764 9.625 20.093 9.8075 20.5041 10.1725C20.9153 10.5375 21.1208 10.9383 21.1208 11.375C21.1208 11.7917 20.9666 12.1825 20.6583 12.5475C20.35 12.9125 19.9646 13.2508 19.5021 13.5625C18.3715 14.375 17.6778 14.9896 17.4208 15.4062C17.1639 15.8229 17.0354 16.5833 17.0354 17.6875ZM18.5 27.5C16.3673 27.5 14.3632 27.1721 12.4875 26.5162C10.6118 25.8604 8.98019 24.9696 7.59269 23.8438C6.20519 22.7188 5.10701 21.3958 4.29815 19.875C3.48929 18.3542 3.08434 16.7292 3.08331 15C3.08331 13.2708 3.48826 11.6458 4.29815 10.125C5.10804 8.60417 6.20622 7.28125 7.59269 6.15625C8.98019 5.03125 10.6118 4.14083 12.4875 3.485C14.3632 2.82917 16.3673 2.50083 18.5 2.5C20.6326 2.5 22.6368 2.82833 24.5125 3.485C26.3882 4.14167 28.0198 5.03208 29.4073 6.15625C30.7948 7.28125 31.8935 8.60417 32.7034 10.125C33.5132 11.6458 33.9177 13.2708 33.9166 15C33.9166 16.7292 33.5117 18.3542 32.7018 19.875C31.8919 21.3958 30.7937 22.7188 29.4073 23.8438C28.0198 24.9688 26.3882 25.8596 24.5125 26.5162C22.6368 27.1729 20.6326 27.5008 18.5 27.5Z" fill="white"/>
</svg>
